PathFileType	4	(X/Y/Z)	Patient4_TMGait_0pt8_01_right_29.trc.trc
DataRate	CameraRate	NumFrames	NumMarkers	Units	OrigDataRate	OrigDataStartFrame	OrigNumFrames
88.050314465409	88.050314465409	4	33	mm	88.050314465409	1	       141
Frame#	Time	Sacral			L.Shoulder			Chest			R.Shoulder			Neck			R.ASIS			L.ASIS			R.Thigh.Superior			R.Thigh.Lateral			R.Thigh.Inferior			R.Patella			L.Thigh.Superior			L.Thigh.Lateral			L.Thigh.Inferior			L.Patella			L.Shank.Superior			L.Shank.Lateral			L.Shank.Inferior			R.Shank.Superior			R.Shank.Lateral			R.Shank.Inferior			R.Heel			R.Midfoot.Superior			R.Midfoot.Lateral			R.Toe			L.Heel			L.Midfoot.Lateral			L.Midfoot.Superior			L.Toe			L.Elbow			L.Wrist			R.Elbow			R.Wrist			
		X1	Y1	Z1	X2	Y2	Z2	X3	Y3	Z3	X4	Y4	Z4	X5	Y5	Z5	X6	Y6	Z6	X7	Y7	Z7	X8	Y8	Z8	X9	Y9	Z9	X10	Y10	Z10	X11	Y11	Z11	X12	Y12	Z12	X13	Y13	Z13	X14	Y14	Z14	X15	Y15	Z15	X16	Y16	Z16	X17	Y17	Z17	X18	Y18	Z18	X19	Y19	Z19	X20	Y20	Z20	X21	Y21	Z21	X22	Y22	Z22	X23	Y23	Z23	X24	Y24	Z24	X25	Y25	Z25	X26	Y26	Z26	X27	Y27	Z27	X28	Y28	Z28	X29	Y29	Z29	X30	Y30	Z30	X31	Y31	Z31	X32	Y32	Z32	X33	Y33	Z33	

1	32.400000000000	852.306596281138	1011.950519139694	459.889579988539	1040.605858613870	1439.168382231677	301.018631051938	1133.929352744988	1367.305163329237	466.920022512808	1039.373650790692	1437.535395271178	637.721319817902	1015.373868828074	1497.551692236980	457.814747890491	1069.137483230387	944.834089174222	591.914738628998	1075.927495660178	962.009089553909	318.359762901244	1137.138297251112	760.668320106597	573.052421385600	1079.837268477563	644.417520961065	641.825861982872	1170.237362132719	594.234038325465	569.809675547817	1173.407080091549	478.978011337181	594.646494478824	1121.890278038915	749.959651960730	344.217007047768	1029.449582932661	635.373915588863	286.103552978959	1113.611104848849	555.746376286122	349.098742429812	1113.308312324254	485.393404812198	360.243016489961	1081.222658944271	413.412280080186	352.956607999621	986.154747522288	305.002109651437	300.321282888453	1026.166833858907	191.084405864217	372.976296539810	1085.464167458301	414.748904429174	598.913792970907	955.043180315650	402.097673390576	654.024642067483	924.528576025315	295.236794710177	608.580949153529	719.317585271216	273.653735254645	570.090800178121	867.492495126801	179.172060481645	619.694842240341	757.512597935343	200.399296633014	644.676329018308	904.988371163941	55.702120470240	647.566349415581	889.236808532680	39.363031528725	411.204968293137	963.199271405953	36.366460535923	330.829739652737	1047.058977204611	95.960291215976	359.584570248689	1175.230083329714	41.883826881537	329.397863219570	1017.851034986440	1095.647088652028	159.843804206032	1179.744549138122	892.947136805036	193.521074537466	1033.325529607000	1083.227491767199	737.544870385618	1272.827062625815	994.522784093505	710.079355963210	
2	32.411357142857	851.069654011789	1012.395959799847	457.980301197949	1041.522413960707	1439.710420787694	299.737424129207	1132.760635820134	1368.057258332252	466.787906128816	1036.270829512866	1438.447692704615	636.344221017217	1014.456965289122	1498.266222487149	456.253294179717	1067.088004386066	946.430581250853	591.989575777064	1076.483300475261	962.879857529795	318.189195523560	1139.330954604497	766.440101483827	572.170650817462	1085.963954355889	648.716024943188	641.556644436767	1177.796168552104	601.287398296237	569.622135528941	1184.433747885604	486.086597565342	594.411761805645	1118.404053771384	748.892577944103	345.174411900253	1024.692397502259	635.628688343952	285.837247698820	1106.720924786642	554.808841884823	349.652894515855	1105.179900755202	484.680582337778	360.733743639558	1073.074300732680	413.186936765080	353.022534147306	977.703787431038	305.154865800858	300.159399582222	1017.041449258015	191.075407829432	372.915231294172	1098.243766014949	419.812226274227	598.464261003061	968.153505567673	403.088909083614	652.474826104261	940.936301131774	295.377902763683	606.816594992964	736.622369676841	267.637516758117	567.299264219805	887.507886470739	178.013537500645	617.539454034641	776.884699179345	195.833749338226	642.176077803086	928.697831553239	55.821241942080	645.419620681621	879.594033483102	39.530745670767	411.088089977409	953.595640552707	36.389501743293	330.806741002344	1037.541714485375	95.975576903810	359.487142974725	1165.645905061129	41.751230933576	329.362486954372	1027.084488189985	1097.141286841332	156.739866997790	1198.495204604861	905.085098603897	193.888505012411	1023.812686253873	1084.007835218110	735.711555481607	1250.786660064036	972.067387063215	713.259761317984	
3	32.422714285714	849.847564974571	1012.824820563358	456.116962612095	1042.435011500908	1440.242233927131	298.500681951900	1131.617572326110	1368.780899117968	466.672927306531	1033.220854032336	1439.308976907099	635.004902759377	1013.556249682055	1498.955119173128	454.741890565067	1065.080062224314	947.993586616207	592.063324720412	1076.980394372041	963.701335391624	318.035268948415	1141.454431913222	772.118841400919	571.365250570846	1091.944880333692	652.962551274767	641.332545589332	1185.171611876644	608.247353251862	569.490773397615	1195.201582007756	493.129508492786	594.249228675519	1114.962251995742	747.837835940358	346.144161053988	1020.026680024472	635.866856373803	285.567476372830	1099.950341593640	553.882431460604	350.191505691154	1097.183910122059	483.974517373900	361.207026834635	1065.061237081714	412.954712232724	353.084847873796	969.390405893412	305.300465975405	299.996236509694	1008.040152476875	191.064426735203	372.858833998302	1110.821854439386	424.758450351442	598.055855115357	981.076568610272	403.862263828646	650.992219987321	957.245513115856	295.305062411474	605.117665489257	753.850007716722	261.280868890258	564.587252892232	907.492542819609	176.574419722827	615.439964321012	796.222007901302	190.912829588060	639.737291600716	952.465825490301	55.683372263035	643.329443621984	870.079896790105	39.704104744728	410.972344518704	944.120717691992	36.417710236777	330.784679535176	1028.151126380939	95.993741469984	359.391247229038	1156.187483518992	41.619783250579	329.327951533020	1036.165780447084	1098.638756813769	153.741794702681	1216.910738710304	917.222983894227	194.308722699726	1014.528554310969	1084.738321648753	733.990624577760	1228.619514026596	950.099047941921	716.424114581371	
4	32.434071428571	848.656596756766	1013.202350181072	454.342325624071	1043.338153506728	1440.742640119154	297.361566811187	1130.524096366930	1369.431487183229	466.599496429792	1030.276174201713	1440.049778618623	633.750466755711	1012.684053249911	1499.576953493115	453.338105745598	1063.152781182454	949.474152680511	592.136853518680	1077.359372140693	964.412088646613	317.911510278756	1143.434468252576	777.580123262943	570.700029311779	1097.616617747187	657.067370832424	641.182182161129	1192.154672437748	614.973719801431	569.449239242752	1205.445603707633	500.031257958574	594.199832520323	1111.574510886806	746.782141659424	347.131389288893	1015.476708059524	636.067868980255	285.288090997014	1093.326884624755	552.961367306943	350.698187806700	1089.350910812388	483.273112806915	361.643641062266	1057.214774291309	412.703162150050	353.137045176209	961.242965766272	305.428790296802	299.830297740881	999.177817603970	191.045393597592	372.812442690103	1123.045711036586	429.473433234138	597.719706081411	993.785910100500	404.148089582548	649.673654696580	973.581485226006	294.789930162476	603.575886672900	771.288344344837	254.104181225158	562.109892690038	927.752848380291	174.606546659233	613.497863277322	815.892261144264	185.230615125394	637.486536469251	976.738288215023	55.169380968949	641.374786547831	860.711787608241	39.884600346122	410.860478805267	934.791256944103	36.454063586977	330.764689528345	1018.902309459920	96.016689410016	359.299555850643	1146.869557671813	41.491518693741	329.295294994439	1045.028862157648	1100.151166310990	150.958009434103	1234.767400227787	929.506258111855	194.850241890731	1005.557046476397	1085.384316139658	732.463742242946	1205.950371074299	929.110547843758	719.566846045966	
